<svg xmlns="http://www.w3.org/2000/svg">
  <symbol id="home" viewBox="0 0 24 24"><path d="M3 11.5 12 4l9 7.5"/><path d="M5.5 10v10h13V10M9 20v-6h6v6"/></symbol>
  <symbol id="chat" viewBox="0 0 24 24"><path d="M20 15a4 4 0 0 1-4 4H9l-5 3v-7a4 4 0 0 1-1-2.6V7a4 4 0 0 1 4-4h9a4 4 0 0 1 4 4z"/><path d="M8 9h8M8 13h5"/></symbol>
  <symbol id="document" viewBox="0 0 24 24"><path d="M6 2h8l4 4v16H6z"/><path d="M14 2v5h5M9 12h6M9 16h6"/></symbol>
  <symbol id="upload" viewBox="0 0 24 24"><path d="M12 16V4M7 9l5-5 5 5M4 15v5h16v-5"/></symbol>
  <symbol id="book" viewBox="0 0 24 24"><path d="M4 5a3 3 0 0 1 3-3h5v18H7a3 3 0 0 0-3 2zM20 5a3 3 0 0 0-3-3h-5v18h5a3 3 0 0 1 3 2z"/></symbol>
  <symbol id="chart" viewBox="0 0 24 24"><path d="M4 20V10M10 20V4M16 20v-7M22 20H2"/></symbol>
  <symbol id="settings" viewBox="0 0 24 24"><circle cx="12" cy="12" r="3"/><path d="M19.4 15a1.7 1.7 0 0 0 .3 1.9l.1.1-2.8 2.8-.1-.1a1.7 1.7 0 0 0-1.9-.3 1.7 1.7 0 0 0-1 1.6v.2h-4V21a1.7 1.7 0 0 0-1-1.6 1.7 1.7 0 0 0-1.9.3l-.1.1L4.2 17l.1-.1a1.7 1.7 0 0 0 .3-1.9A1.7 1.7 0 0 0 3 14H2.8v-4H3a1.7 1.7 0 0 0 1.6-1 1.7 1.7 0 0 0-.3-1.9L4.2 7 7 4.2l.1.1A1.7 1.7 0 0 0 9 4.6 1.7 1.7 0 0 0 10 3V2.8h4V3a1.7 1.7 0 0 0 1 1.6 1.7 1.7 0 0 0 1.9-.3l.1-.1L19.8 7l-.1.1a1.7 1.7 0 0 0-.3 1.9 1.7 1.7 0 0 0 1.6 1h.2v4H21a1.7 1.7 0 0 0-1.6 1z"/></symbol>
  <symbol id="users" viewBox="0 0 24 24"><circle cx="9" cy="8" r="4"/><path d="M2 21v-2a6 6 0 0 1 12 0v2M16 4a4 4 0 0 1 0 8M18 15a6 6 0 0 1 4 5v1"/></symbol>
  <symbol id="package" viewBox="0 0 24 24"><path d="m3 7 9-5 9 5v10l-9 5-9-5zM3 7l9 5 9-5M12 12v10"/></symbol>
  <symbol id="payment" viewBox="0 0 24 24"><rect x="2" y="5" width="20" height="14" rx="2"/><path d="M2 10h20M6 15h4"/></symbol>
  <symbol id="logout" viewBox="0 0 24 24"><path d="M10 4H4v16h6M14 8l4 4-4 4M8 12h10"/></symbol>
  <symbol id="menu" viewBox="0 0 24 24"><path d="M4 7h16M4 12h16M4 17h16"/></symbol>
  <symbol id="close" viewBox="0 0 24 24"><path d="m6 6 12 12M18 6 6 18"/></symbol>
  <symbol id="search" viewBox="0 0 24 24"><circle cx="11" cy="11" r="7"/><path d="m20 20-4-4"/></symbol>
  <symbol id="plus" viewBox="0 0 24 24"><path d="M12 5v14M5 12h14"/></symbol>
  <symbol id="send" viewBox="0 0 24 24"><path d="m22 2-7 20-4-9-9-4zM22 2 11 13"/></symbol>
  <symbol id="trash" viewBox="0 0 24 24"><path d="M4 7h16M9 7V4h6v3M6 7l1 14h10l1-14M10 11v6M14 11v6"/></symbol>
  <symbol id="check" viewBox="0 0 24 24"><path d="m5 12 4 4L19 6"/></symbol>
  <symbol id="warning" viewBox="0 0 24 24"><path d="M12 3 2 21h20zM12 9v5M12 18h.01"/></symbol>
  <symbol id="info" viewBox="0 0 24 24"><circle cx="12" cy="12" r="10"/><path d="M12 11v6M12 7h.01"/></symbol>
  <symbol id="eye" viewBox="0 0 24 24"><path d="M2 12s4-7 10-7 10 7 10 7-4 7-10 7S2 12 2 12z"/><circle cx="12" cy="12" r="3"/></symbol>
  <symbol id="eye-off" viewBox="0 0 24 24"><path d="m3 3 18 18M10.6 5.2A9 9 0 0 1 12 5c6 0 10 7 10 7a16 16 0 0 1-2.1 2.9M6.5 6.5C3.7 8.5 2 12 2 12s4 7 10 7a9 9 0 0 0 4.3-1.1M9.9 9.9a3 3 0 0 0 4.2 4.2"/></symbol>
</svg>
